<svg id="Camada_1" data-name="Camada 1" xmlns="http://www.w3.org/2000/svg" viewBox="0 0 448 682.25"><defs><style>.cls-1{fill:#fff;}.cls-2{fill:#00a1d3;}.cls-3{fill:#d1000b;}</style></defs><title>logo-barbearia-2</title><path class="cls-1" d="M459,117V638s99,85,224,81c0,0,105,8,224-89V127S829,47,683,37C683,37,559,31,459,117Z" transform="translate(-459 -36.91)"/><path class="cls-2" d="M907,127S826,43,669,37L907,161Z" transform="translate(-459 -36.91)"/><path class="cls-3" d="M907,255,541,66s-48,19-82,51L907,349Z" transform="translate(-459 -36.91)"/><polygon class="cls-2" points="448 406.09 0 174.09 0 265.09 448 497.09 448 406.09"/><path class="cls-3" d="M907,630,459,396v93L830,681S872,658,907,630Z" transform="translate(-459 -36.91)"/><path class="cls-2" d="M715,717,459,583v55S560,732,715,717Z" transform="translate(-459 -36.91)"/></svg>